<?xml version="1.0" encoding="utf-8"?><svg viewBox="0 0 24 24" xmlns="http://www.w3.org/2000/svg" xmlns:xlink="http://www.w3.org/1999/xlink"><style>:root>svg{display:none}:root>svg:target{display:block}</style><svg fill="none" viewBox="0 0 14 14" id="arrow" xmlns="http://www.w3.org/2000/svg"><path d="M6.52 11.416a.583.583 0 00.96 0l5.25-7.584a.583.583 0 00-.48-.915H1.75a.585.585 0 00-.48.915l5.25 7.584z" fill="#593F62"/></svg><svg fill="none" viewBox="0 0 19 19" id="bell_slash" xmlns="http://www.w3.org/2000/svg"><g clip-path="url(#bclip0_2_1234)"><path d="M6.132 16.625h11.68c-1.78-1.188-2.375-7.009-2.375-8.313 0-.313-.023-.62-.07-.921l-9.235 9.234zM13.6 4.017a5.923 5.923 0 00-2.918-1.523 1.188 1.188 0 10-2.363 0 5.94 5.94 0 00-4.756 5.818c0 1.067-.397 5.157-1.517 7.26L13.599 4.017zm-1.724 13.795a2.375 2.375 0 11-4.75 0h4.75zm-11.133.743a.63.63 0 10.89.89L19.149 1.93a.629.629 0 10-.89-.891L.742 18.555z" fill="#593F62"/></g><defs><clipPath id="bclip0_2_1234"><path fill="#fff" d="M0 0h19v19H0z"/></clipPath></defs></svg><svg fill="none" viewBox="0 0 23 23" id="channel" xmlns="http://www.w3.org/2000/svg"><path d="M6.325 3.45a2.875 2.875 0 00-2.647 1.752 2.3 2.3 0 11-.228 4.5v6.973a2.875 2.875 0 002.875 2.875h10.35a2.875 2.875 0 002.875-2.875V6.325a2.875 2.875 0 00-2.875-2.875H6.325zM8.05 9.775a.575.575 0 01.575-.575h5.75a.575.575 0 110 1.15h-5.75a.575.575 0 01-.575-.575zm.575 2.875h3.45a.575.575 0 010 1.15h-3.45a.575.575 0 010-1.15zm-4.6-6.325a1.15 1.15 0 100 2.3 1.15 1.15 0 000-2.3z" fill="#593F62"/></svg><svg fill="none" viewBox="0 0 24 24" id="ci_close-big" xmlns="http://www.w3.org/2000/svg"><path d="M17.59 5L12 10.59 6.41 5 5 6.41 10.59 12 5 17.59 6.41 19 12 13.41 17.59 19 19 17.59 13.41 12 19 6.41 17.59 5z" fill="#593F62"/></svg><svg fill="none" viewBox="0 0 19 19" id="delete" xmlns="http://www.w3.org/2000/svg"><path d="M16.031 4.75h-2.375V3.266c0-.655-.532-1.188-1.187-1.188H6.53c-.655 0-1.187.533-1.187 1.188V4.75H2.969a.593.593 0 00-.594.594v.593c0 .082.067.149.148.149h1.121l.458 9.704c.03.633.553 1.132 1.186 1.132h8.424c.635 0 1.156-.497 1.186-1.132l.458-9.704h1.12a.149.149 0 00.149-.149v-.593a.593.593 0 00-.594-.594zm-3.71 0H6.68V3.414h5.64V4.75z" fill="#593F62"/></svg><svg fill="none" viewBox="0 0 20 20" id="fc" xmlns="http://www.w3.org/2000/svg"><path d="M10.001.002C4.479.002.002 4.479.002 10.001c0 4.99 3.656 9.126 8.437 9.879v-6.988h-2.54v-2.891h2.54V7.798c0-2.508 1.493-3.891 3.776-3.891 1.094 0 2.24.195 2.24.195v2.459h-1.264c-1.24 0-1.628.772-1.628 1.563v1.875h2.771l-.443 2.891h-2.328v6.988C16.344 19.129 20 14.992 20 10.001 20 4.479 15.523.002 10.001.002z" fill="#593F62"/></svg><svg fill="none" viewBox="0 0 23 23" id="notification" xmlns="http://www.w3.org/2000/svg"><path d="M11.5 21.084a1.917 1.917 0 01-1.917-1.917h3.834a1.917 1.917 0 01-1.917 1.917zm7.667-2.875H3.833v-1.917l1.917-.958v-5.271a7.729 7.729 0 01.885-3.891 4.46 4.46 0 012.948-2.166V1.917h3.494a4.313 4.313 0 004.121 7.092c.034.342.05.696.05 1.054v5.27l1.917.959v1.917h.002zM16.292 7.667a2.875 2.875 0 11.01-5.75 2.875 2.875 0 01-.01 5.75z" fill="#593F62"/></svg><svg fill="none" viewBox="0 0 23 23" id="person" xmlns="http://www.w3.org/2000/svg"><path d="M4.313 20.125s-1.438 0-1.438-1.438c0-1.437 1.438-5.75 8.625-5.75 7.188 0 8.625 4.313 8.625 5.75 0 1.438-1.438 1.438-1.438 1.438H4.313zM11.5 11.5a4.313 4.313 0 100-8.626 4.313 4.313 0 000 8.626z" fill="#593F62"/></svg><svg fill="none" viewBox="0 0 18 18" id="share_alt" xmlns="http://www.w3.org/2000/svg"><g clip-path="url(#iclip0_2_1182)"><path d="M11.318.525V4.94C7.31 4.939 0 4.983 0 17.474c.829-8.353 4.636-8.406 11.318-8.406v4.82L18 7.206 11.318.526z" fill="#593F62"/></g><defs><clipPath id="iclip0_2_1182"><path fill="#fff" d="M0 0h18v18H0z"/></clipPath></defs></svg><svg fill="none" viewBox="0 0 24 24" id="twitter" xmlns="http://www.w3.org/2000/svg"><path d="M12 1.5C6.202 1.5 1.5 6.202 1.5 12S6.202 22.5 12 22.5 22.5 17.798 22.5 12 17.798 1.5 12 1.5zm5.046 7.915c.007.11.007.225.007.337 0 3.441-2.62 7.404-7.408 7.404a7.383 7.383 0 01-3.999-1.167c.211.023.413.033.628.033 1.219 0 2.34-.413 3.232-1.111a2.604 2.604 0 01-2.433-1.805c.401.059.762.059 1.175-.047a2.602 2.602 0 01-2.084-2.554v-.033c.345.194.75.314 1.174.33a2.604 2.604 0 01-.806-3.478 7.39 7.39 0 005.367 2.721c-.368-1.77.954-3.201 2.543-3.201.75 0 1.425.314 1.901.82.588-.11 1.15-.33 1.652-.626a2.59 2.59 0 01-1.143 1.432 5.148 5.148 0 001.5-.405c-.354.52-.797.982-1.306 1.35z" fill="#593F62"/></svg><svg fill="none" viewBox="0 0 22 22" id="vector" xmlns="http://www.w3.org/2000/svg"><path d="M12.688 11.844a.844.844 0 101.688 0 .844.844 0 00-1.688 0zm3.374-2.531a.841.841 0 00-.761.482c.44.335.806.72 1.076 1.144a.844.844 0 00-.314-1.627zM11 .5C5.202.5.5 5.202.5 11S5.202 21.5 11 21.5 21.5 16.798 21.5 11 16.798.5 11 .5zm5.742 11.2c.108.317.164.648.164.988 0 2.33-2.643 4.218-5.906 4.218s-5.906-1.889-5.906-4.218c0-.34.056-.67.164-.987a1.688 1.688 0 112.154-2.365c.848-.464 1.88-.769 3.002-.846l1.369-3.073c.1-.23.356-.347.598-.276l2.146.62a1.266 1.266 0 111.116 1.866c-.55 0-1.02-.354-1.193-.846l-1.927-.555-1.007 2.262c1.15.07 2.207.377 3.075.85a1.686 1.686 0 013.162.82 1.695 1.695 0 01-1.01 1.543zm-4.015 1.946c-.349.274-1.038.57-1.727.57-.69 0-1.38-.296-1.727-.57a.5.5 0 10-.62.788c.603.478 1.524.785 2.347.785s1.744-.307 2.348-.785a.5.5 0 10-.62-.788zm-6.79-4.334a.843.843 0 00-.314 1.627c.27-.424.636-.809 1.076-1.144a.841.841 0 00-.761-.482zm1.688 2.532a.844.844 0 101.688 0 .844.844 0 00-1.688 0z" fill="#593F62"/></svg></svg>